<svg width="102" height="26" viewBox="0 0 102 26" fill="none" xmlns="http://www.w3.org/2000/svg">
<path d="M6.96471 19.75H14.6297V25H0.104714V0.324998H6.96471V19.75ZM26.4321 25.245C24.4721 25.245 22.7104 24.8367 21.1471 24.02C19.6071 23.2033 18.3938 22.0367 17.5071 20.52C16.6204 19.0033 16.1771 17.2183 16.1771 15.165C16.1771 13.135 16.6204 11.3617 17.5071 9.845C18.4171 8.32833 19.6421 7.16167 21.1821 6.345C22.7454 5.52833 24.5071 5.12 26.4671 5.12C28.4271 5.12 30.1771 5.52833 31.7171 6.345C33.2804 7.16167 34.5054 8.32833 35.3921 9.845C36.3021 11.3617 36.7571 13.135 36.7571 15.165C36.7571 17.195 36.3021 18.98 35.3921 20.52C34.5054 22.0367 33.2804 23.2033 31.7171 24.02C30.1538 24.8367 28.3921 25.245 26.4321 25.245ZM26.4321 19.295C27.3888 19.295 28.1821 18.945 28.8121 18.245C29.4654 17.5217 29.7921 16.495 29.7921 15.165C29.7921 13.835 29.4654 12.82 28.8121 12.12C28.1821 11.42 27.4004 11.07 26.4671 11.07C25.5338 11.07 24.7521 11.42 24.1221 12.12C23.4921 12.82 23.1771 13.835 23.1771 15.165C23.1771 16.5183 23.4804 17.545 24.0871 18.245C24.6938 18.945 25.4754 19.295 26.4321 19.295ZM38.4281 15.165C38.4281 13.135 38.8481 11.3617 39.6881 9.845C40.5281 8.32833 41.6947 7.16167 43.1881 6.345C44.7047 5.52833 46.4314 5.12 48.3681 5.12C50.8647 5.12 52.9647 5.80833 54.6681 7.185C56.3714 8.53833 57.4681 10.44 57.9581 12.89H50.6781C50.2581 11.6067 49.4414 10.965 48.2281 10.965C47.3647 10.965 46.6764 11.3267 46.1631 12.05C45.6731 12.75 45.4281 13.7883 45.4281 15.165C45.4281 16.5417 45.6731 17.5917 46.1631 18.315C46.6764 19.0383 47.3647 19.4 48.2281 19.4C49.4647 19.4 50.2814 18.7583 50.6781 17.475H57.9581C57.4681 19.9017 56.3714 21.8033 54.6681 23.18C52.9647 24.5567 50.8647 25.245 48.3681 25.245C46.4314 25.245 44.7047 24.8367 43.1881 24.02C41.6947 23.2033 40.5281 22.0367 39.6881 20.52C38.8481 19.0033 38.4281 17.2183 38.4281 15.165ZM80.8978 5.365V25H74.0028V22.2C73.4195 23.0867 72.6145 23.81 71.5878 24.37C70.5612 24.9067 69.3828 25.175 68.0528 25.175C65.7662 25.175 63.9578 24.4283 62.6278 22.935C61.3212 21.4183 60.6678 19.365 60.6678 16.775V5.365H67.4928V15.9C67.4928 17.02 67.7845 17.9067 68.3678 18.56C68.9745 19.19 69.7678 19.505 70.7478 19.505C71.7512 19.505 72.5445 19.19 73.1278 18.56C73.7112 17.9067 74.0028 17.02 74.0028 15.9V5.365H80.8978ZM93.167 25.245C91.3936 25.245 89.807 24.9533 88.407 24.37C87.0303 23.7633 85.9336 22.9467 85.117 21.92C84.3236 20.87 83.8803 19.6917 83.787 18.385H90.437C90.5303 19.015 90.822 19.505 91.312 19.855C91.802 20.205 92.4086 20.38 93.132 20.38C93.692 20.38 94.1353 20.2633 94.462 20.03C94.7886 19.7967 94.952 19.4933 94.952 19.12C94.952 18.63 94.6836 18.2683 94.147 18.035C93.6103 17.8017 92.7236 17.545 91.487 17.265C90.087 16.985 88.9203 16.67 87.987 16.32C87.0536 15.97 86.237 15.3983 85.537 14.605C84.8603 13.8117 84.522 12.7383 84.522 11.385C84.522 10.2183 84.837 9.16833 85.467 8.235C86.097 7.27833 87.0186 6.52 88.232 5.96C89.4686 5.4 90.9503 5.12 92.677 5.12C95.2436 5.12 97.262 5.75 98.732 7.01C100.202 8.27 101.054 9.92667 101.287 11.98H95.092C94.9753 11.35 94.6953 10.8717 94.252 10.545C93.832 10.195 93.2603 10.02 92.537 10.02C91.977 10.02 91.5453 10.125 91.242 10.335C90.962 10.545 90.822 10.8367 90.822 11.21C90.822 11.6767 91.0903 12.0383 91.627 12.295C92.1636 12.5283 93.027 12.7733 94.217 13.03C95.6403 13.3333 96.8186 13.6717 97.752 14.045C98.7086 14.4183 99.537 15.025 100.237 15.865C100.96 16.6817 101.322 17.8017 101.322 19.225C101.322 20.3683 100.984 21.395 100.307 22.305C99.6536 23.215 98.7086 23.9383 97.472 24.475C96.2586 24.9883 94.8236 25.245 93.167 25.245Z" fill="#58A9A5"/>
</svg>
